<svg display="none" xmlns="http://www.w3.org/2000/svg">
  <symbol id="create-ic" class="icon" viewBox="0 0 32 32" >
    <path d="M 25 4.03125 C 24.234835 4.03125 23.483027 4.3294733 22.90625 4.90625 L 13 14.78125 L 12.78125 15 L 12.71875 15.3125 L 12.03125 18.8125 L 11.71875 20.28125 L 13.1875 19.96875 L 16.6875 19.28125 L 17 19.21875 L 17.21875 19 L 27.09375 9.09375 C 28.247303 7.9401966 28.247303 6.0598034 27.09375 4.90625 C 26.516973 4.3294733 25.765165 4.03125 25 4.03125 z M 25 5.96875 C 25.234835 5.96875 25.464277 6.0892767 25.6875 6.3125 C 26.133947 6.7589466 26.133947 7.2410534 25.6875 7.6875 L 16 17.375 L 14.28125 17.71875 L 14.625 16 L 24.3125 6.3125 C 24.535723 6.0892767 24.765165 5.96875 25 5.96875 z M 4 8 L 4 28 L 24 28 L 24 14.8125 L 22 16.8125 L 22 26 L 6 26 L 6 10 L 15.1875 10 L 17.1875 8 L 4 8 z"/>
  </symbol>
  <symbol id="trash-ic" class="icon" viewBox="0 0 40 40" >
    <g><path d="M28,40H11.8c-3.3,0-5.9-2.7-5.9-5.9V16c0-0.6,0.4-1,1-1s1,0.4,1,1v18.1c0,2.2,1.8,3.9,3.9,3.9H28c2.2,0,3.9-1.8,3.9-3.9V16   c0-0.6,0.4-1,1-1s1,0.4,1,1v18.1C33.9,37.3,31.2,40,28,40z"/></g><g><path d="M33.3,4.9h-7.6C25.2,2.1,22.8,0,19.9,0s-5.3,2.1-5.8,4.9H6.5c-2.3,0-4.1,1.8-4.1,4.1S4.2,13,6.5,13h26.9   c2.3,0,4.1-1.8,4.1-4.1S35.6,4.9,33.3,4.9z M19.9,2c1.8,0,3.3,1.2,3.7,2.9h-7.5C16.6,3.2,18.1,2,19.9,2z M33.3,11H6.5   c-1.1,0-2.1-0.9-2.1-2.1c0-1.1,0.9-2.1,2.1-2.1h26.9c1.1,0,2.1,0.9,2.1,2.1C35.4,10.1,34.5,11,33.3,11z"/></g><g><path d="M12.9,35.1c-0.6,0-1-0.4-1-1V17.4c0-0.6,0.4-1,1-1s1,0.4,1,1v16.7C13.9,34.6,13.4,35.1,12.9,35.1z"/></g><g><path d="M26.9,35.1c-0.6,0-1-0.4-1-1V17.4c0-0.6,0.4-1,1-1s1,0.4,1,1v16.7C27.9,34.6,27.4,35.1,26.9,35.1z"/></g><g><path d="M19.9,35.1c-0.6,0-1-0.4-1-1V17.4c0-0.6,0.4-1,1-1s1,0.4,1,1v16.7C20.9,34.6,20.4,35.1,19.9,35.1z"/></g>
  </symbol>
  <symbol id="edit-ic" class="icon" viewBox="0 0 490.584 490.584" >
    <g>
      <g>
        <path d="M100.911,419.404l123.8-51c3.1-2.1,6.2-4.2,8.3-6.2l203.9-248.6c6.2-9.4,5.2-21.8-3.1-29.1l-96.8-80.1
          c-8-5.9-20.3-6.8-28.1,3.1l-204.9,248.5c-2.1,3.1-3.1,6.2-4.2,9.4l-26,132.1C72.511,420.104,90.611,424.004,100.911,419.404z
          M326.611,49.004l65.5,54.1l-177.7,217.1l-64.9-53.7L326.611,49.004z M133.411,306.904l44.4,36.8l-57.2,23.6L133.411,306.904z"/>
        <path d="M469.111,448.504h-349.5c0,0-72.5,3.4-75.2-15.2c0-1-1.8-5.6,7.6-17c7.3-9.4,6.2-21.8-2.1-29.1
          c-9.4-7.3-21.8-6.2-29.1,2.1c-19.8,23.9-25,44.7-15.6,63.5c25.5,47.5,111.3,36.3,115.4,37.3h348.5c11.4,0,20.8-9.4,20.8-20.8
          C490.011,457.804,480.611,448.504,469.111,448.504z"/>
      </g>
    </g>
  </symbol>

  <symbol id="save-ic" class="icon" viewBox="0 0 32 32" >
    <g>
      <g>
        <path d="M26,0h-2v13H8V0H0v32h32V6L26,0z M28,30H4V16h24V30z"/>
        <rect x="6" y="18"  width="20" height="2"/>
        <rect x="6" y="22"  width="20" height="2"/>
        <rect x="6" y="26"  width="20" height="2"/>
        <rect x="18" y="2"  width="4" height="9"/>
      </g>
    </g>
  </symbol>

    
</svg>